<svg width="50" height="51" viewBox="0 0 50 51" fill="none" xmlns="http://www.w3.org/2000/svg">
<path d="M10.2166 45.763C10.4638 45.1532 10.9088 44.016 11.3868 42.8952C11.5351 42.5327 11.5021 42.3184 11.2384 42.0217C8.09053 38.4948 7.53017 34.325 8.32127 29.8586C9.01348 25.969 10.5297 22.4421 12.7712 19.1788C16.7267 13.4433 20.7811 7.77378 24.8519 2.12072C25.1156 1.74165 25.4452 1.41203 25.7749 1C28.2471 4.87308 30.6698 8.69672 33.0925 12.5204C34.1144 14.119 35.1362 15.7012 36.1251 17.3164C36.4053 17.7779 36.7019 17.9592 37.2458 17.7779C37.7897 17.5966 38.35 17.4977 39.0093 17.4812C29.3019 27.0074 19.5944 36.55 10.2166 45.763Z" fill="#235BD8"/>
<path d="M11.2559 47.3616C12.6403 46.0431 14.0412 44.7411 15.4091 43.4061C16.9254 41.9228 18.4087 40.4395 19.892 38.9232C20.2381 38.5606 20.4689 38.5276 20.9139 38.7749C23.6497 40.2582 26.4021 40.2417 29.0391 38.6101C31.6596 36.9619 32.8957 34.4897 32.7803 31.3913C32.7309 30.1387 32.3683 28.9685 31.7255 27.8808C31.5442 27.5841 31.4289 27.3699 31.7585 27.0402C35.1042 23.711 38.4334 20.3489 41.7626 17.0032C41.7955 16.9702 41.8615 16.9537 41.9604 16.9043C42.0263 17.3328 41.7626 17.613 41.5978 17.9261C40.5759 19.8874 39.5541 21.8651 38.4828 23.8099C38.2851 24.156 38.2521 24.4527 38.4004 24.7988C38.4169 24.8153 38.4169 24.8482 38.4169 24.8812C38.7465 26.9249 39.8508 28.1939 41.9439 28.5565C42.6691 28.6884 42.9492 29.1004 42.8998 29.8915C42.8174 31.1441 42.8503 32.4131 42.8833 33.6822C42.8998 34.2755 42.8009 34.704 42.1581 34.8359C42.0263 34.8688 41.9109 34.9677 41.7791 35.0007C39.7848 35.4951 38.763 36.8466 38.3839 38.8078C38.3015 39.2858 38.1862 39.6978 38.5158 40.1098C38.6806 40.3241 38.7795 40.5878 38.8949 40.835C39.7848 42.5985 39.7848 42.5985 38.4334 43.9829C37.6917 44.7575 36.9171 45.4992 36.1919 46.2738C35.8953 46.587 35.6151 46.6858 35.2525 46.4386C33.4725 45.252 31.6596 45.3344 29.7313 46.0925C29.0556 46.3562 28.6271 46.6364 28.4787 47.3616C28.3304 48.0868 28.0337 48.7625 27.8524 49.4877C27.7536 49.8832 27.5723 50.0151 27.1767 49.9986C25.6604 49.9821 24.1606 49.9821 22.6444 49.9986C22.1994 49.9986 22.0181 49.8338 21.8862 49.4547C21.5896 48.5977 21.2435 47.7736 20.9468 46.9166C20.8314 46.554 20.6337 46.3892 20.2876 46.2903C19.2822 46.0101 18.2933 45.697 17.288 45.4003C16.9584 45.3014 16.6452 45.3674 16.3321 45.5157C14.9147 46.1584 13.4808 46.7847 12.047 47.411C11.8657 47.4934 11.7173 47.6747 11.2559 47.3616Z" fill="#FE7C10"/>
</svg>
