<svg width="638" height="171" viewBox="0 0 638 171" fill="none" xmlns="http://www.w3.org/2000/svg">
<path d="M23.3506 144.247C24.0589 142.5 25.3338 139.242 26.7032 136.031C27.1281 134.992 27.0337 134.378 26.2782 133.528C17.2594 123.423 15.6539 111.477 17.9204 98.6805C19.9036 87.5368 24.2478 77.4319 30.6696 68.0826C42.0021 51.6503 53.618 35.407 65.2811 19.2109C66.0366 18.1248 66.981 17.1805 67.9253 16C75.0082 27.0965 81.9494 38.0513 88.8906 49.0061C91.8181 53.5863 94.7457 58.1193 97.5789 62.7468C98.3816 64.0689 99.2315 64.5883 100.79 64.0689C102.348 63.5495 103.953 63.2662 105.842 63.219C78.0302 90.5116 50.2182 117.851 23.3506 144.247Z" fill="#235BD8"/>
<path d="M26.3242 148.827C30.2906 145.049 34.3043 141.319 38.2235 137.494C42.5676 133.244 46.8174 128.995 51.0671 124.65C52.0587 123.612 52.7198 123.517 53.9947 124.225C61.8331 128.475 69.7187 128.428 77.2738 123.753C84.7817 119.031 88.3231 111.948 87.9926 103.071C87.8509 99.4825 86.8121 96.1299 84.9706 93.0135C84.4511 92.1635 84.1206 91.5497 85.065 90.6053C94.6505 81.067 104.189 71.4343 113.727 61.8487C113.822 61.7543 114.01 61.7071 114.294 61.5654C114.483 62.7931 113.727 63.5959 113.255 64.493C110.327 70.1121 107.4 75.7784 104.33 81.3503C103.764 82.3419 103.669 83.1918 104.094 84.1834C104.142 84.2307 104.142 84.3251 104.142 84.4195C105.086 90.2747 108.25 93.9106 114.247 94.9494C116.324 95.3272 117.127 96.5077 116.985 98.7742C116.749 102.363 116.844 105.999 116.938 109.635C116.985 111.335 116.702 112.562 114.86 112.94C114.483 113.034 114.152 113.318 113.774 113.412C108.061 114.829 105.133 118.701 104.047 124.32C103.811 125.689 103.48 126.87 104.425 128.05C104.897 128.664 105.18 129.419 105.511 130.128C108.061 135.18 108.061 135.18 104.189 139.147C102.064 141.366 99.8446 143.491 97.767 145.71C96.917 146.607 96.1143 146.891 95.0755 146.182C89.9758 142.783 84.7817 143.019 79.257 145.191C77.321 145.946 76.0933 146.749 75.6683 148.827C75.2434 150.904 74.3934 152.84 73.874 154.918C73.5907 156.051 73.0713 156.429 71.938 156.382C67.5939 156.334 63.2969 156.334 58.9527 156.382C57.6778 156.382 57.1584 155.909 56.7806 154.823C55.9307 152.368 54.9391 150.007 54.0891 147.552C53.7586 146.513 53.192 146.041 52.2004 145.757C49.32 144.955 46.4868 144.057 43.6065 143.208C42.6621 142.924 41.7649 143.113 40.8678 143.538C36.8069 145.38 32.6988 147.174 28.5907 148.968C28.0713 149.204 27.6464 149.724 26.3242 148.827Z" fill="#FE7C10"/>
<path d="M283.553 94.3026C313.553 94.3026 343.553 94.2026 373.453 94.4026C378.053 94.4026 379.753 93.6026 379.553 88.5026C379.153 74.9026 379.453 61.2026 379.453 47.5026C379.453 46.2026 379.453 44.8026 379.453 43.5026C379.653 39.7026 381.253 36.9026 385.353 37.0026C389.453 37.1026 391.153 39.6026 391.153 43.6026C391.153 56.1026 391.053 68.6026 391.153 81.1026C391.153 85.4026 389.253 91.0026 392.153 93.5026C394.653 95.6026 400.053 94.2026 404.253 94.2026C409.453 94.3026 414.553 94.3026 419.753 94.2026C423.653 94.2026 426.253 95.8026 426.753 99.8026C427.153 103.303 424.253 105.903 419.853 106.003C411.653 106.103 403.553 106.203 395.353 106.003C392.153 105.903 390.953 106.803 391.153 110.203C391.653 118.603 395.153 122.203 403.653 122.203C409.153 122.203 414.653 122.303 420.153 122.203C424.153 122.103 426.853 123.903 426.853 127.903C426.953 132.003 424.153 133.603 420.253 133.603C413.953 133.503 407.553 133.603 401.253 133.603C388.353 133.603 381.953 128.003 380.153 115.403C378.853 106.203 378.853 106.203 369.553 106.203C311.253 106.203 252.953 106.203 194.653 106.203C193.453 106.203 192.353 106.203 191.153 106.203C186.853 106.003 183.853 103.403 184.253 100.003C184.653 96.0026 187.353 94.4026 191.153 94.4026C199.353 94.4026 207.453 94.4026 215.653 94.4026C238.253 94.3026 260.953 94.3026 283.553 94.3026Z" fill="#FE7C10"/>
<path d="M374.452 63.4029C374.452 69.6029 374.552 75.7029 374.452 81.9029C374.352 87.4029 372.652 89.2029 367.352 89.3029C355.352 89.4029 343.352 89.5029 331.352 89.3029C320.152 89.1029 312.852 81.1029 312.952 69.4029C313.052 57.8029 320.452 50.3029 331.852 50.1029C338.352 50.0029 344.852 50.1029 351.352 50.1029C355.252 50.1029 357.952 51.7029 358.052 55.8029C358.052 59.9029 355.352 61.5029 351.452 61.5029C345.152 61.5029 338.752 61.4029 332.452 61.5029C327.252 61.6029 325.052 63.9029 324.952 69.3029C324.852 75.1029 326.952 77.7029 332.252 77.7029C340.952 77.8029 349.552 77.6029 358.252 77.8029C362.052 77.9029 363.052 76.2029 363.052 72.7029C362.852 63.5029 362.952 54.4029 362.952 45.2029C362.952 39.3029 364.552 37.1029 368.552 37.0029C372.752 36.9029 374.452 39.4029 374.552 45.4029C374.552 51.4029 374.452 57.4029 374.452 63.4029Z" fill="#235BD8"/>
<path d="M564.852 108.003C564.852 101.303 564.952 94.7034 564.852 88.0034C564.752 84.0034 566.452 81.4034 570.452 81.2034C574.552 81.0034 576.952 83.8034 576.452 87.6034C575.652 93.9034 578.652 94.6034 583.752 94.3034C589.752 93.9034 595.752 94.2035 601.752 94.2035C612.452 94.2035 619.952 100.903 620.852 111.803C621.352 117.403 621.052 123.103 621.052 128.803C621.052 132.403 618.852 134.303 615.352 134.403C611.752 134.603 609.652 132.503 609.352 129.103C609.052 124.503 609.252 119.803 609.152 115.103C609.052 107.803 607.152 106.003 600.052 106.003C593.552 106.003 587.052 106.103 580.552 105.903C577.552 105.803 576.452 106.603 576.552 109.803C576.752 115.503 576.652 121.103 576.552 126.803C576.452 132.103 574.252 135.103 570.452 134.703C565.752 134.303 564.752 131.103 564.852 126.903C564.952 120.703 564.852 114.403 564.852 108.003Z" fill="#FE7C10"/>
<path d="M532.453 133.403C526.953 133.403 521.453 133.703 515.953 133.303C505.953 132.703 498.953 124.203 499.153 113.403C499.353 102.603 506.853 94.4032 516.853 94.3032C527.353 94.2032 537.853 94.3032 548.353 94.3032C552.453 94.3032 555.453 95.9033 555.453 100.203C555.453 104.503 552.353 106.103 548.353 106.103C538.353 106.103 528.353 106.103 518.353 106.103C513.453 106.103 511.053 108.803 511.053 114.003C511.053 119.103 513.653 122.103 518.253 122.203C528.253 122.303 538.253 122.303 548.253 122.203C552.353 122.103 555.453 123.503 555.453 127.803C555.553 132.203 552.553 133.703 548.353 133.603C543.053 133.403 537.753 133.503 532.453 133.403Z" fill="#FE7C10"/>
<path d="M467.553 133.403C462.053 133.403 456.553 133.603 451.053 133.303C440.853 132.803 433.653 124.103 434.053 113.103C434.453 102.303 441.953 94.4032 451.953 94.3032C462.253 94.2032 472.553 94.3032 482.853 94.3032C486.853 94.3032 490.153 95.5032 490.153 99.9032C490.153 104.403 486.853 105.403 482.853 105.403C473.253 105.303 463.553 105.303 453.853 105.403C448.153 105.403 445.753 108.203 445.753 114.303C445.753 120.503 448.153 123.103 453.953 123.103C463.653 123.203 473.253 123.103 482.953 123.103C486.653 123.103 489.953 123.803 490.053 128.203C490.153 132.903 486.653 133.603 482.753 133.603C477.853 133.403 472.753 133.503 467.553 133.403Z" fill="#FE7C10"/>
<path d="M281.053 50.103C286.553 50.103 292.053 50.103 297.553 50.103C301.153 50.103 303.953 51.403 304.153 55.303C304.353 59.503 301.453 61.103 297.653 61.103C287.653 61.103 277.653 61.103 267.753 61.103C262.353 61.103 260.253 63.503 260.053 69.203C259.853 75.603 262.053 78.603 267.453 78.703C276.553 78.903 285.753 78.803 294.853 78.803C296.353 78.803 297.853 78.703 299.353 78.903C302.353 79.303 304.253 81.003 304.253 84.203C304.253 87.203 302.253 89.103 299.653 89.103C287.153 89.203 274.653 90.303 262.253 88.603C252.753 87.303 247.253 78.003 248.253 67.103C249.053 57.303 256.253 50.303 265.753 50.103C270.653 50.003 275.853 50.103 281.053 50.103Z" fill="#235BD8"/>
<path d="M218.152 38.2035C223.452 38.2035 228.852 38.2035 234.152 38.2035C238.052 38.2035 240.752 40.1035 240.752 44.0035C240.752 48.0035 237.952 49.8035 234.152 49.9035C225.152 50.0035 216.152 49.9035 207.152 49.9035C199.552 49.9035 196.252 53.0035 195.952 60.7035C195.752 68.0035 195.952 75.3035 195.852 82.7035C195.852 87.8035 193.752 90.3035 189.952 90.2035C186.152 90.2035 183.952 87.6035 184.152 82.6035C184.352 73.3035 183.252 64.0035 185.052 54.7035C187.252 43.4035 193.652 38.2035 205.152 38.1035C209.552 38.2035 213.852 38.2035 218.152 38.2035Z" fill="#235BD8"/>
<path d="M220.454 73.3027C215.654 73.3027 210.854 73.3027 206.054 73.3027C202.254 73.3027 200.054 71.3027 200.154 67.5027C200.254 63.9027 202.454 62.1027 205.954 62.0027C215.754 61.9027 225.554 61.9027 235.354 62.0027C238.854 62.0027 241.054 64.0027 241.054 67.6027C240.954 71.3027 238.854 73.3027 234.954 73.3027C230.154 73.3027 225.254 73.3027 220.454 73.3027Z" fill="#235BD8"/>
<path d="M284.152 73.4031C279.552 73.4031 274.852 73.4031 270.252 73.4031C267.652 73.4031 265.452 72.5031 265.252 69.7031C265.052 66.7031 267.452 65.7031 269.852 65.6031C279.352 65.4031 288.752 65.4031 298.252 65.6031C300.652 65.6031 303.052 66.6031 303.052 69.6031C302.952 72.5031 300.652 73.3031 298.152 73.4031C293.452 73.4031 288.852 73.4031 284.152 73.4031Z" fill="#265DD9"/>
<path d="M470.652 110.003C475.252 110.003 479.952 110.003 484.552 110.003C486.952 110.003 488.952 110.803 489.152 113.503C489.452 116.603 487.152 117.703 484.752 117.803C475.352 118.003 465.852 118.003 456.452 117.803C453.952 117.803 451.252 116.703 451.552 113.403C451.852 110.503 454.152 109.903 456.752 110.003C461.352 110.103 466.052 110.003 470.652 110.003Z" fill="#FE7D13"/>
</svg>
